<?xml version="1.0" encoding="UTF-8"?>
<svg xmlns="http://www.w3.org/2000/svg" xmlns:xlink="http://www.w3.org/1999/xlink" width="20px" height="20px" viewBox="0 0 20 20" version="1.1">
<g id="surface1">
<path style=" stroke:none;fill-rule:nonzero;fill:rgb(25.882353%,52.156863%,95.686275%);fill-opacity:1;" d="M 19.988281 10.1875 C 19.988281 9.367188 19.921875 8.769531 19.773438 8.148438 L 10.199219 8.148438 L 10.199219 11.847656 L 15.820312 11.847656 C 15.707031 12.765625 15.09375 14.152344 13.734375 15.082031 L 13.714844 15.207031 L 16.742188 17.496094 L 16.953125 17.515625 C 18.878906 15.777344 19.988281 13.222656 19.988281 10.1875 "/>
<path style=" stroke:none;fill-rule:nonzero;fill:rgb(20.392157%,65.882353%,32.54902%);fill-opacity:1;" d="M 10.199219 19.929688 C 12.953125 19.929688 15.265625 19.046875 16.953125 17.515625 L 13.734375 15.082031 C 12.875 15.667969 11.71875 16.078125 10.199219 16.078125 C 7.503906 16.078125 5.214844 14.339844 4.398438 11.9375 L 4.277344 11.945312 L 1.128906 14.328125 L 1.089844 14.4375 C 2.765625 17.695312 6.210938 19.929688 10.199219 19.929688 "/>
<path style=" stroke:none;fill-rule:nonzero;fill:rgb(98.431373%,73.72549%,1.960784%);fill-opacity:1;" d="M 4.398438 11.9375 C 4.183594 11.316406 4.058594 10.652344 4.058594 9.964844 C 4.058594 9.277344 4.183594 8.613281 4.386719 7.996094 L 4.378906 7.863281 L 1.191406 5.445312 L 1.089844 5.492188 C 0.398438 6.84375 0 8.359375 0 9.964844 C 0 11.570312 0.398438 13.089844 1.089844 14.4375 L 4.398438 11.9375 "/>
<path style=" stroke:none;fill-rule:nonzero;fill:rgb(92.156863%,26.27451%,20.784314%);fill-opacity:1;" d="M 10.199219 3.851562 C 12.113281 3.851562 13.40625 4.660156 14.140625 5.335938 L 17.019531 2.589844 C 15.253906 0.984375 12.953125 0 10.199219 0 C 6.210938 0 2.765625 2.238281 1.089844 5.492188 L 4.386719 7.996094 C 5.214844 5.59375 7.503906 3.851562 10.199219 3.851562 "/>
</g>
</svg>
