<?xml version="1.0" standalone="no"?>
<!DOCTYPE svg PUBLIC "-//W3C//DTD SVG 20010904//EN"
 "http://www.w3.org/TR/2001/REC-SVG-20010904/DTD/svg10.dtd">
<svg version="1.0" xmlns="http://www.w3.org/2000/svg"
 width="616.000000pt" height="616.000000pt" viewBox="0 0 616.000000 616.000000"
 preserveAspectRatio="xMidYMid meet">
<metadata>
Created by potrace 1.14, written by Peter Selinger 2001-2017
</metadata>
<g transform="translate(0.000000,616.000000) scale(0.100000,-0.100000)"
fill="#000000" stroke="none">
<path d="M3727 5004 c-3 -3 -29 -7 -58 -9 -229 -18 -388 -61 -594 -161 -175
-86 -300 -187 -439 -354 -40 -49 -109 -164 -147 -247 -23 -49 -45 -96 -51
-107 -5 -10 -11 -26 -14 -35 -2 -9 -17 -54 -33 -101 -16 -47 -32 -99 -35 -115
-6 -26 -15 -34 -69 -54 -107 -42 -199 -87 -281 -141 -91 -59 -114 -80 -94 -81
46 -2 89 -28 106 -62 25 -52 31 -101 29 -244 -2 -151 -3 -152 -32 -195 -19
-27 -48 -52 -79 -67 -45 -23 -59 -24 -191 -23 -122 0 -150 4 -192 22 -64 27
-96 79 -96 156 l0 54 -136 1 c-305 1 -342 0 -374 -16 -53 -25 -70 -63 -67
-155 1 -30 2 -75 1 -100 -2 -113 0 -258 5 -284 6 -37 48 -74 92 -82 18 -4 139
-7 269 -8 l237 -1 17 -85 c19 -92 49 -202 58 -210 3 -3 7 -10 8 -17 7 -33 68
-149 122 -230 56 -84 165 -205 236 -262 149 -118 358 -220 543 -262 80 -18 86
-19 122 -24 19 -2 53 -7 75 -10 22 -4 95 -8 162 -9 119 -2 123 -3 160 -32 95
-75 291 -184 333 -186 3 0 10 -3 15 -8 12 -9 129 -47 165 -54 14 -2 32 -7 40
-10 15 -5 31 -8 135 -23 93 -14 364 -8 455 11 245 49 473 163 634 314 l46 43
92 4 c148 8 231 23 368 67 217 70 432 212 570 376 25 29 50 58 55 65 26 30
116 174 121 195 4 12 10 22 15 22 5 0 9 8 9 18 0 10 4 22 9 28 10 11 67 175
75 219 4 17 9 41 12 55 26 128 26 374 0 490 -3 14 -9 41 -13 60 -9 42 -8 41
-15 60 -4 8 -14 40 -24 70 -10 30 -36 91 -58 135 -152 307 -402 529 -738 655
-86 32 -88 33 -105 79 -37 99 -119 238 -200 338 -38 47 -145 155 -183 184 -14
10 -45 35 -70 54 -25 19 -51 35 -57 35 -7 0 -13 4 -13 9 0 4 -55 36 -122 69
-116 57 -232 99 -337 123 -72 17 -83 19 -191 35 -14 3 -79 7 -144 9 -65 3
-122 8 -126 10 -4 2 -10 2 -13 -1z m393 -658 c30 -4 73 -12 95 -18 22 -5 50
-12 62 -14 35 -7 177 -60 235 -90 241 -120 449 -339 521 -549 45 -132 54 -289
23 -393 -3 -9 -7 -30 -10 -46 -10 -59 -118 -258 -165 -305 -9 -9 -30 -34 -46
-55 l-28 -37 39 22 c38 22 98 64 120 84 93 83 114 108 165 186 87 133 140 289
143 422 0 26 1 47 2 47 12 0 147 -270 172 -345 44 -126 65 -322 48 -437 -3
-21 -8 -53 -11 -70 -2 -18 -9 -48 -14 -65 -5 -18 -8 -33 -5 -33 2 0 -2 -13
-11 -30 -8 -16 -15 -33 -15 -37 1 -16 -63 -153 -71 -153 -5 0 -9 -6 -9 -14 0
-45 -189 -251 -298 -325 -178 -121 -353 -175 -557 -175 -95 0 -258 26 -280 44
-5 5 -14 9 -20 10 -96 21 -236 123 -318 233 -26 35 -95 170 -101 199 -2 7 -7
32 -11 56 -7 40 -19 56 -24 30 -1 -7 -3 -65 -5 -128 -3 -103 -1 -124 23 -196
41 -128 105 -219 231 -329 46 -40 170 -117 243 -151 32 -14 55 -30 50 -34 -11
-9 -122 -40 -170 -46 -21 -2 -45 -6 -53 -9 -26 -8 -121 -17 -199 -19 -106 -2
-233 12 -321 36 -41 11 -79 21 -85 22 -15 4 -44 16 -95 39 -25 11 -48 19 -52
19 -5 -1 -8 2 -8 8 0 5 -5 10 -11 10 -21 0 -133 82 -197 144 -100 96 -166 202
-213 341 -19 58 -23 91 -24 195 0 69 4 139 8 155 4 17 10 37 12 45 2 8 4 15 5
15 1 0 3 7 5 15 1 8 14 39 29 69 14 30 24 56 22 58 -7 7 -102 -81 -127 -117
-13 -19 -32 -44 -41 -54 -10 -10 -15 -22 -13 -27 3 -4 -1 -13 -8 -21 -11 -11
-27 -40 -32 -58 0 -3 -10 -34 -22 -70 -24 -75 -35 -116 -38 -145 -1 -11 -5
-41 -9 -66 -12 -81 -5 -316 10 -341 12 -19 -17 -5 -86 43 -208 143 -314 254
-394 414 -90 179 -115 378 -73 585 32 156 133 333 267 468 76 77 233 192 282
207 13 4 25 11 28 15 5 6 103 36 153 46 99 20 312 20 407 -1 14 -3 39 -8 55
-10 92 -13 306 -98 393 -156 24 -16 45 -29 47 -29 20 0 200 -181 221 -221 25
-49 28 -26 4 38 -35 95 -99 203 -165 282 -31 36 -125 125 -143 135 -9 5 -19
13 -22 17 -9 13 -154 94 -216 121 -52 22 -182 63 -234 73 -8 2 -15 4 -15 5 0
1 -11 3 -25 5 -14 2 -52 8 -85 13 -33 6 -63 8 -67 5 -5 -2 -8 0 -8 5 0 24 255
234 338 279 20 10 58 31 85 46 26 15 47 24 47 22 0 -3 10 1 23 9 25 16 164 61
217 71 119 22 298 26 420 11z"/>
<path d="M1817 4520 c-78 -5 -90 -8 -112 -32 -14 -15 -25 -37 -24 -50 0 -13 0
-71 -1 -131 -2 -175 11 -187 205 -187 184 0 195 10 195 179 0 192 -10 212
-113 221 -34 3 -101 3 -150 0z"/>
<path d="M227 4443 c-1 -1 -36 -3 -77 -4 -99 -3 -106 -6 -130 -44 -18 -29 -20
-50 -20 -195 0 -241 2 -243 244 -241 128 1 164 5 186 18 27 15 56 60 46 70 -2
2 0 18 4 34 5 16 6 29 2 29 -4 0 -6 53 -5 117 3 189 -8 205 -155 213 -52 3
-95 4 -95 3z"/>
<path d="M808 4260 c-37 -20 -70 -59 -82 -96 -8 -26 -9 -439 -1 -478 8 -37 36
-78 72 -102 26 -17 50 -19 285 -19 245 0 258 1 285 21 41 30 75 85 70 111 -2
13 -1 23 2 23 12 0 5 414 -8 451 -14 45 -57 86 -102 99 -18 6 -135 10 -259 10
-203 -1 -229 -3 -262 -20z"/>
<path d="M246 3403 c-1 -1 -23 -3 -49 -4 -39 -2 -54 -9 -81 -37 -28 -28 -34
-41 -35 -80 -1 -26 -2 -58 -2 -72 -1 -14 0 -65 1 -115 4 -158 25 -174 237
-176 230 -2 245 13 244 242 0 219 -18 239 -208 242 -58 1 -106 1 -107 0z"/>
</g>
</svg>
